<svg xmlns="http://www.w3.org/2000/svg" version="1.1" xmlns:xlink="http://www.w3.org/1999/xlink" xmlns:svgjs="http://svgjs.dev/svgjs" width="1500" height="125" viewBox="0 0 1500 125"><g transform="matrix(1,0,0,1,-0.9090909090911055,0.5011762728953499)"><svg viewBox="0 0 396 33" data-background-color="#ffffff" preserveAspectRatio="xMidYMid meet" height="125" width="1500" xmlns="http://www.w3.org/2000/svg" xmlns:xlink="http://www.w3.org/1999/xlink"><g id="tight-bounds" transform="matrix(1,0,0,1,0.24000000000003752,-0.13231053604437193)"><svg viewBox="0 0 395.5199999999999 33.264621072088715" height="33.264621072088715" width="395.5199999999999"><g><svg viewBox="0 0 395.5199999999999 33.264621072088715" height="33.264621072088715" width="395.5199999999999"><g><svg viewBox="0 0 395.52000000000004 33.26462107208872" height="33.264621072088715" width="395.5199999999999"><g><svg viewBox="0 0 395.52000000000004 33.26462107208872" height="33.26462107208872" width="395.52000000000004"><g id="textblocktransform"><svg viewBox="0 0 395.52000000000004 33.26462107208872" height="33.26462107208872" width="395.52000000000004" id="textblock"><g><svg viewBox="0 0 395.52000000000004 33.26462107208872" height="33.26462107208872" width="395.52000000000004"><g transform="matrix(1,0,0,1,0,0)"><svg width="395.52000000000004" viewBox="-9 -31.25 378.68 31.85" height="33.26462107208872" data-palette-color="#ff0065"><path d="M38.25-31.25L36.8-23.25 29.9-23.25 25.85 0 16.35 0 20.4-23.25 13.55-23.25 15-31.25 38.25-31.25ZM15.2-2.4L14.8-0.15-6.4-2.4 15.2-2.4ZM16.9-12.05L16.5-9.8-4.7-12.05 16.9-12.05ZM17.75-16.85L17.35-14.6-3.85-16.85 17.75-16.85ZM18.6-21.65L18.2-19.4-3-21.65 18.6-21.65ZM16.05-7.25L15.65-5-5.55-7.25 16.05-7.25ZM12.55-26.45L12.2-24.2-9-26.45 12.55-26.45ZM13.4-31.25L13-29-8.15-31.25 13.4-31.25ZM71.4 0L62.65 0 62.45-4.05 56.15-4.05 54.6 0 45.95 0 57.05-26.45 69.45-26.45 71.4 0ZM58.8-11.2L62.45-11.2 62.45-18.8 61.75-18.8 58.8-11.2ZM45.3-2.4L44.35-0.2 23.85-2.4 45.3-2.4ZM47.35-7.25L46.4-5.05 25.9-7.25 47.35-7.25ZM49.35-12.05L48.45-9.85 27.95-12.05 49.35-12.05ZM51.4-16.85L50.45-14.65 30-16.85 51.4-16.85ZM53.4-21.65L52.5-19.45 32.05-21.65 53.4-21.65ZM55.4-26.45L54.5-24.3 34.1-26.45 55.4-26.45ZM83.25-0.15L62.35-2.4 83.95-2.4 83.25-0.15ZM66.2-21.65L87.75-21.65Q87.45-20.85 87.09-19.4L87.09-19.4 66.2-21.65ZM86.5-15L86.5-15 86.5-14.6 65.3-16.85 86.59-16.85Q86.5-15.65 86.5-15ZM85.55-7.25L84.84-5.05 64-7.25 85.55-7.25ZM69.65-26.45L91.2-26.45Q89.84-25.45 89.15-24.35L89.15-24.35 69.65-26.45ZM67.25-12.05L86.95-12.05Q87.4-10.75 88.4-9.8L88.4-9.8 67.25-12.05ZM109.3-25.9L106.9-18.6Q103.5-19.4 101.09-19.4 98.7-19.4 97.55-19.25L97.55-19.25 97.3-17.8 99.8-17.5Q107.84-16.45 107.84-10.85L107.84-10.85Q107.84-10.2 107.55-8.43 107.25-6.65 106.55-5 105.84-3.35 104.77-2.33 103.7-1.3 102.67-0.68 101.65-0.05 100.05 0.2L100.05 0.2Q97.55 0.6 93.37 0.6 89.2 0.6 84.95-0.55L84.95-0.55 87.4-7.95Q91.3-6.85 94.22-6.85 97.15-6.85 98.34-7L98.34-7 98.59-8.6 95.45-8.95Q91.4-9.4 89.7-10.85 88-12.3 88-15L88-15Q88-16 88.25-17.5L88.25-17.5Q89.25-22.85 91.84-24.9 94.45-26.95 99.77-26.95 105.09-26.95 109.3-25.9L109.3-25.9ZM142.04 0L132.89 0 130.54-8.65 130.24-8.65 128.74 0 120.34 0 124.94-26.45 133.39-26.45 131.94-18.35 132.19-18.35 137.34-26.45 146.49-26.45 138.09-13.5 142.04 0ZM119.09-2.4L118.69-0.15 97.49-2.4 119.09-2.4ZM120.79-12.05L120.39-9.8 99.19-12.05 120.79-12.05ZM121.64-16.85L121.24-14.6 100.04-16.85 121.64-16.85ZM122.49-21.65L122.09-19.4 100.89-21.65 122.49-21.65ZM123.29-26.45L122.94-24.2 101.74-26.45 123.29-26.45ZM119.94-7.25L119.54-5 98.34-7.25 119.94-7.25ZM181.34 0L171.84 0 173.74-11.05 166.59-11.05 164.69 0 155.19 0 160.69-31.25 170.19-31.25 168.24-20.2 175.39-20.2 177.34-31.25 186.84-31.25 181.34 0ZM154.09-2.4L153.69-0.15 132.49-2.4 154.09-2.4ZM155.79-12.05L155.39-9.8 134.19-12.05 155.79-12.05ZM156.64-16.85L156.24-14.6 135.04-16.85 156.64-16.85ZM157.49-21.65L157.09-19.4 135.89-21.65 157.49-21.65ZM158.29-26.45L157.94-24.2 136.74-26.45 158.29-26.45ZM154.94-7.25L154.54-5 133.34-7.25 154.94-7.25ZM159.14-31.25L158.74-29 137.59-31.25 159.14-31.25ZM222.34 0L213.59 0 213.39-4.05 207.09-4.05 205.54 0 196.89 0 207.99-26.45 220.39-26.45 222.34 0ZM209.74-11.2L213.39-11.2 213.39-18.8 212.69-18.8 209.74-11.2ZM196.24-2.4L195.29-0.2 174.79-2.4 196.24-2.4ZM198.29-7.25L197.34-5.05 176.84-7.25 198.29-7.25ZM200.29-12.05L199.39-9.85 178.89-12.05 200.29-12.05ZM202.34-16.85L201.39-14.65 180.94-16.85 202.34-16.85ZM204.34-21.65L203.44-19.45 182.99-21.65 204.34-21.65ZM206.34-26.45L205.44-24.3 185.04-26.45 206.34-26.45ZM239.99-26.45L252.69-26.45Q259.99-26.45 259.99-19.85L259.99-19.85Q259.99-16.85 258.79-13.63 257.59-10.4 254.74-8.8L254.74-8.8 257.59 0 248.24 0 246.34-7.7 245.14-7.7 243.79 0 235.39 0 239.99-26.45ZM250.54-16.05L250.84-17.8Q250.84-17.85 250.89-18.3L250.89-18.3Q250.89-19.15 248.24-19.15L248.24-19.15 247.14-19.15 246.34-14.55 247.94-14.55Q250.24-14.55 250.54-16.05L250.54-16.05ZM234.14-2.4L233.74-0.15 212.54-2.4 234.14-2.4ZM235.84-12.05L235.44-9.8 214.24-12.05 235.84-12.05ZM236.69-16.85L236.29-14.6 215.09-16.85 236.69-16.85ZM237.54-21.65L237.14-19.4 215.94-21.65 237.54-21.65ZM238.34-26.45L237.99-24.2 216.79-26.45 238.34-26.45ZM234.99-7.25L234.59-5 213.39-7.25 234.99-7.25ZM276.03-26.45L289.53-26.45Q295.23-26.45 295.23-21.75L295.23-21.75Q295.23-19.15 294.01-17.05 292.78-14.95 291.03-14.15L291.03-14.15 290.98-13.85Q294.28-12.8 294.28-9.3L294.28-9.3Q294.28-4.9 291.91-2.45 289.53 0 284.73 0L284.73 0 271.43 0 276.03-26.45ZM284.73-10.25L284.73-10.25 281.63-10.25 280.98-6.55 284.08-6.55Q285.83-6.55 285.83-9.1L285.83-9.1Q285.83-10.25 284.73-10.25ZM286.03-20.1L286.03-20.1 283.33-20.1 282.78-16.9 285.53-16.9Q287.03-16.9 287.03-19.1L287.03-19.1Q287.03-20.1 286.03-20.1ZM270.23-2.4L269.83-0.15 248.63-2.4 270.23-2.4ZM271.93-12.05L271.53-9.8 250.33-12.05 271.93-12.05ZM272.78-16.85L272.38-14.6 251.18-16.85 272.78-16.85ZM273.63-21.65L273.23-19.4 252.03-21.65 273.63-21.65ZM274.43-26.45L274.08-24.2 252.88-26.45 274.43-26.45ZM271.08-7.25L270.68-5 249.48-7.25 271.08-7.25ZM322.38-26.95L322.38-26.95Q327.78-26.95 330.08-24.88 332.38-22.8 332.38-18.4L332.38-18.4Q332.38-16.25 331.83-13.2L331.83-13.2Q330.58-6 327.43-2.7 324.28 0.6 317.53 0.6L317.53 0.6Q312.23 0.6 309.98-1.48 307.73-3.55 307.73-7.9L307.73-7.9Q307.73-10.15 308.28-13.2L308.28-13.2Q309.53-20.4 312.63-23.68 315.73-26.95 322.38-26.95ZM316.03-7L318.98-7Q320.43-7 321.16-7.35 321.88-7.7 322.13-8.9L322.13-8.9 324.03-19.35 320.98-19.35Q319.58-19.35 318.81-19 318.03-18.65 317.88-17.5L317.88-17.5 316.03-7ZM286.58-12.05L306.53-12.05Q306.33-10.5 306.28-9.95L306.28-9.95 286.58-12.05ZM287.48-16.85L307.48-16.85 307.03-14.75 287.48-16.85ZM286.78-7.25L306.23-7.25Q306.23-6.45 306.43-5.15L306.43-5.15 286.78-7.25ZM289.48-21.65L309.23-21.65Q308.63-20.35 308.38-19.65L308.38-19.65 289.48-21.65ZM291.13-2.4L307.28-2.4Q307.88-1.2 308.58-0.55L308.58-0.55 291.13-2.4ZM296.18-26.45L313.58-26.45Q312.38-25.75 311.53-24.8L311.53-24.8 296.18-26.45ZM349.68-26.45L362.38-26.45Q369.68-26.45 369.68-19.85L369.68-19.85Q369.68-16.85 368.48-13.63 367.28-10.4 364.43-8.8L364.43-8.8 367.28 0 357.93 0 356.03-7.7 354.83-7.7 353.48 0 345.08 0 349.68-26.45ZM360.23-16.05L360.53-17.8Q360.53-17.85 360.58-18.3L360.58-18.3Q360.58-19.15 357.93-19.15L357.93-19.15 356.83-19.15 356.03-14.55 357.63-14.55Q359.93-14.55 360.23-16.05L360.23-16.05ZM343.83-2.4L343.43-0.15 322.23-2.4 343.83-2.4ZM345.53-12.05L345.13-9.8 323.93-12.05 345.53-12.05ZM346.38-16.85L345.98-14.6 324.78-16.85 346.38-16.85ZM347.23-21.65L346.83-19.4 325.63-21.65 347.23-21.65ZM348.03-26.45L347.68-24.2 326.48-26.45 348.03-26.45ZM344.68-7.25L344.28-5 323.08-7.25 344.68-7.25Z" opacity="1" transform="matrix(1,0,0,1,0,0)" fill="#ff0065" class="wordmark-text-0" data-fill-palette-color="primary" id="text-0"></path></svg></g></svg></g></svg></g></svg></g><g></g></svg></g></svg></g><defs></defs></svg><rect width="395.5199999999999" height="33.264621072088715" fill="none" stroke="none" visibility="hidden"></rect></g></svg></g></svg>